<?xml version="1.0" encoding="UTF-8"?>
<svg version="1.1" viewBox="0 0 644.52 647.64" xmlns="http://www.w3.org/2000/svg" xmlns:cc="http://creativecommons.org/ns#" xmlns:dc="http://purl.org/dc/elements/1.1/" xmlns:rdf="http://www.w3.org/1999/02/22-rdf-syntax-ns#">
 <metadata>
  <rdf:RDF>
   <cc:Work rdf:about="">
    <dc:format>image/svg+xml</dc:format>
    <dc:type rdf:resource="http://purl.org/dc/dcmitype/StillImage"/>
    <dc:title/>
   </cc:Work>
  </rdf:RDF>
 </metadata>
 <g transform="translate(1107.7 -16.175)">
  <g transform="matrix(.35278 0 0 -.35278 -1135.2 688.37)">
   <g transform="translate(1905 983.1)" style="">
    <path d="m0 0c0-504.51-408.99-913.5-913.5-913.5-504.51 0-913.5 408.99-913.5 913.5 0 504.51 408.99 913.5 913.5 913.5 504.51 0 913.5-408.99 913.5-913.5" fill="#fff"/>
   </g>
   <g transform="translate(248.98 707.16)" style="">
    <path d="m0 0c25.867-28.91 48.417-60.396 74.114-89.448 34.002-38.442 78.343-50.975 123.53-37.32 23.801 7.194 42.252 21.576 57.373 39.331 19.143 22.479 36.682 46.141 55.33 68.997 23.374 28.647 49.918 54.164 88.681 63.725 59.503 14.678 109.58-1.644 149.02-44.631 21.233-23.134 39.425-48.678 59.534-72.739 9.145-10.941 18.868-21.649 29.609-31.21 42.926-38.21 107.56-38.921 149.6-0.044 19.666 18.189 35.297 40.152 52.966 60.246 17.364 19.746 33.284 40.933 52.832 58.604 52.195 47.184 136.14 47.369 188.03-0.111 22.147-20.265 39.804-44.793 59.595-67.313 15.229-17.329 29.117-35.965 46.204-51.534 42.336-38.574 107.23-38.502 149.47 0.36 18.023 16.582 32.747 36.327 48.582 54.922 13.462 15.807 25.41 32.812 39.684 47.928 55.542 58.825 132.68 67.105 194.07 24.378 24.549 82.6 37.795 170.07 37.795 260.64 0 504.51-408.99 913.5-913.5 913.5s-913.5-408.99-913.5-913.5c0-81.803 10.814-161.07 30.984-236.52 2.214 0.311 4.43 0.619 6.67 0.875 54.416 6.205 98.855-10.617 133.32-49.136" fill="#333"/>
   </g>
   <g transform="translate(1047.2 1842.2)" style="">
    <path d="m0 0-36.112-0.104v-0.125h-43.345l-36.115-0.104s-56.403-480.94-402.44-722.33l117.66-720.83 693.46 2 113.49 721.49c-347.42 239.39-406.6 720-406.6 720" fill="#fff"/>
   </g>
   <g transform="translate(1713.6 691.25)" style="">
    <path d="m0 0c-19.917-18.594-35.768-40.955-53.708-61.421-16.723-19.079-32.165-39.449-50.986-56.554-52.601-47.801-136.8-48.177-189.13-0.182-22.124 20.292-39.786 44.813-59.525 67.375-14.583 16.667-27.844 34.593-44.14 49.655-43.783 40.469-109.1 40.621-152.64-0.085-18.56-17.35-33.621-37.985-50.019-57.313-12.536-14.775-23.749-30.613-37.151-44.649-64.867-67.942-157.66-68.033-221.99 0.46-20.862 22.214-38.133 47.337-57.632 70.703-9.431 11.303-19.457 22.362-30.526 32.254-42.794 38.242-107.38 38.948-149.64 0.087-19.378-17.82-34.764-39.404-52.103-59.173-17.336-19.766-33.152-41.016-52.611-58.777-53.093-48.458-137.28-48.558-190.19 0.021-20.762 19.062-37.645 41.836-55.945 63.181-9.611 11.21-17.976 23.36-27.748 34.439-33.459 37.926-72.335 53.833-117.03 48.139 113.17-375.94 461.97-649.8 874.79-649.8 403.03 0 745.07 261.01 866.38 623.21-43.107 37.034-106.99 37.149-148.46-1.569" fill="#63cae9"/>
   </g>
   <g transform="translate(1086 1052.2)" style="">
    <path d="m0 0-0.073 9.195c0 52.072-42.364 94.43-94.433 94.43-41.15 0-76.217-26.463-89.126-63.259-4.373-10.734-5.309-27.526-5.309-31.171v-9.195h-23.23c0.049 7.834 0.12 16.227 0.12 16.346 0 64.905 52.714 117.73 117.58 117.92 64.865-0.191 117.58-53.016 117.58-117.92 0-0.119 0.067-8.086 0.12-16.346zm61.832 16.346c0 77.852-57.367 142.49-132.03 154.04v0.518l-49.061 1.692v-2.286c-74.413-11.771-131.51-76.29-131.51-153.96-3e-3 -0.69-0.297-88.146-0.297-88.146h0.154c0.396-9.714 1.755-12.812 6.163-17.225 3.713-3.712 8.577-5.571 13.447-5.571 4.866 0 9.73 1.859 13.444 5.571 4.164 4.167 5.993 9.784 5.485 15.217-0.102 3.597-0.074 18.83-3e-3 35.779h23.44v-107.43c0-52.072 42.363-94.43 94.435-94.43 52.069 0 94.433 42.358 94.433 94.43v33.297c0.024 0 0.047 0 0.073-9e-3v74.139h23.437c0.073-16.949 0.101-32.182-3e-3 -35.779-0.507-5.433 1.323-11.05 5.487-15.217 3.714-3.712 8.578-5.571 13.444-5.571 4.867 0 9.732 1.859 13.446 5.571 4.407 4.413 5.766 7.511 6.163 17.225h0.153s-0.293 87.456-0.295 88.146" fill="#333"/>
   </g>
   <g transform="translate(947.77 975.76)" style="">
    <path d="m0 0h-51.488c-3.632 0-6.603 2.971-6.603 6.603v2.967c0 3.632 2.971 6.603 6.603 6.603h51.488c3.631 0 6.603-2.971 6.603-6.603v-2.967c0-3.632-2.972-6.603-6.603-6.603" fill="#fff"/>
   </g>
   <g transform="translate(947.77 930.84)" style="">
    <path d="m0 0h-51.488c-3.632 0-6.603 2.971-6.603 6.603v2.967c0 3.632 2.971 6.603 6.603 6.603h51.488c3.631 0 6.603-2.971 6.603-6.603v-2.967c0-3.632-2.972-6.603-6.603-6.603" fill="#fff"/>
   </g>
   <g transform="translate(947.77 885.91)" style="">
    <path d="m0 0h-51.488c-3.632 0-6.603 2.972-6.603 6.603v2.968c0 3.631 2.971 6.603 6.603 6.603h51.488c3.631 0 6.603-2.972 6.603-6.603v-2.968c0-3.631-2.972-6.603-6.603-6.603" fill="#fff"/>
   </g>
   <g transform="translate(1087 974.41)" style="">
    <path d="m0 0h-51.488c-3.632 0-6.603 2.971-6.603 6.603v2.967c0 3.632 2.971 6.603 6.603 6.603h51.488c3.632 0 6.603-2.971 6.603-6.603v-2.967c0-3.632-2.971-6.603-6.603-6.603" fill="#fff"/>
   </g>
   <g transform="translate(1087 929.49)" style="">
    <path d="m0 0h-51.488c-3.632 0-6.603 2.972-6.603 6.604v2.967c0 3.631 2.971 6.603 6.603 6.603h51.488c3.632 0 6.603-2.972 6.603-6.603v-2.967c0-3.632-2.971-6.604-6.603-6.604" fill="#fff"/>
   </g>
   <g transform="translate(1087 884.56)" style="">
    <path d="m0 0h-51.488c-3.632 0-6.603 2.972-6.603 6.603v2.967c0 3.632 2.971 6.604 6.603 6.604h51.488c3.632 0 6.603-2.972 6.603-6.604v-2.967c0-3.631-2.971-6.603-6.603-6.603" fill="#fff"/>
   </g>
   <path d="m1015.8 1222.6h-48.021v619.44h48.021z" fill="#333"/>
  </g>
 </g>
</svg>
